# xmcd CD database file
#
# Track frame offsets:
#	150
#	16255
#	33097
#	52095
#	70822
#	86402
#	101985
#	123020
#	143575
#	159930
#	176632
#
# Disc length: 2603 seconds
#
# Revision: 2
# Processed by: cddbd v1.5.1PL0 Copyright (c) Steve Scherf et al.
# Submitted via: CDex 1.51
#
DISCID=840a290b
DTITLE=Whitney Houston - Just Whitney [UK]
DYEAR=2002
DGENRE=R&B
TTITLE0=Whatchulookinat
TTITLE1=Tell Me No - Santana
TTITLE2=One Of Those Days
TTITLE3=Things You Say
TTITLE4=My Love - Bobby Brown
TTITLE5=Love That Man
TTITLE6=On My Own
TTITLE7=Dear John Letter
TTITLE8=Unashamed
TTITLE9=You Light Up My Life
TTITLE10=Whatchulookinat (remix) - P. Diddy
EXTD=YEAR: 2002
EXTT0=
EXTT1=
EXTT2=
EXTT3=
EXTT4=
EXTT5=
EXTT6=
EXTT7=
EXTT8=
EXTT9=
EXTT10=
PLAYORDER=
